<?xml version="1.0" encoding="UTF-8" standalone="no"?>
<svg
   xmlns:dc="http://purl.org/dc/elements/1.1/"
   xmlns:cc="http://creativecommons.org/ns#"
   xmlns:rdf="http://www.w3.org/1999/02/22-rdf-syntax-ns#"
   xmlns:svg="http://www.w3.org/2000/svg"
   xmlns="http://www.w3.org/2000/svg"
   viewBox="0 0 541.33331 116"
   height="116"
   width="541.33331"
   xml:space="preserve"
   id="svg2"
   version="1.1"><metadata
     id="metadata8"><rdf:RDF><cc:Work
         rdf:about=""><dc:format>image/svg+xml</dc:format><dc:type
           rdf:resource="http://purl.org/dc/dcmitype/StillImage" /></cc:Work></rdf:RDF></metadata><defs
     id="defs6"><clipPath
       id="clipPath132"
       clipPathUnits="userSpaceOnUse"><path
         id="path130"
         d="m 436.816,185.641 c -158.574,58.812 -180.308,227.785 -180.32,411.925 12.543,1.274 25.438,2.707 38.375,4.207 68.543,7.957 116.074,30.547 141.945,46.497 25.872,-15.95 73.407,-38.54 141.95,-46.497 12.933,-1.5 25.832,-2.933 38.375,-4.207 -0.012,-184.14 -21.746,-353.113 -180.325,-411.925 z" /></clipPath><clipPath
       id="clipPath142"
       clipPathUnits="userSpaceOnUse"><path
         id="path140"
         d="m 436.816,185.641 c -158.574,58.812 -180.308,227.785 -180.32,411.925 12.543,1.274 25.438,2.707 38.375,4.207 68.543,7.957 116.074,30.547 141.945,46.497 25.872,-15.95 73.407,-38.54 141.95,-46.497 12.933,-1.5 25.832,-2.933 38.375,-4.207 -0.012,-184.14 -21.746,-353.113 -180.325,-411.925 z" /></clipPath><clipPath
       id="clipPath148"
       clipPathUnits="userSpaceOnUse"><path
         style="clip-rule:evenodd"
         id="path146"
         d="M 593.539,660.145 623.586,638.312 436.844,287.059 v 0 z" /></clipPath><clipPath
       id="clipPath158"
       clipPathUnits="userSpaceOnUse"><path
         id="path156"
         d="m 436.816,185.641 c -158.574,58.812 -180.308,227.785 -180.32,411.925 12.543,1.274 25.438,2.707 38.375,4.207 68.543,7.957 116.074,30.547 141.945,46.497 25.872,-15.95 73.407,-38.54 141.95,-46.497 12.933,-1.5 25.832,-2.933 38.375,-4.207 -0.012,-184.14 -21.746,-353.113 -180.325,-411.925 z" /></clipPath><clipPath
       id="clipPath234"
       clipPathUnits="userSpaceOnUse"><path
         id="path232"
         d="m 436.816,185.641 c -158.574,58.812 -180.308,227.785 -180.32,411.925 12.543,1.274 25.438,2.707 38.375,4.207 68.543,7.957 116.074,30.547 141.945,46.497 25.872,-15.95 73.407,-38.54 141.95,-46.497 12.933,-1.5 25.832,-2.933 38.375,-4.207 -0.012,-184.14 -21.746,-353.113 -180.325,-411.925 z" /></clipPath><clipPath
       id="clipPath240"
       clipPathUnits="userSpaceOnUse"><path
         style="clip-rule:evenodd"
         id="path238"
         d="M 280.113,660.145 250.066,638.312 436.805,287.059 v 0 z" /></clipPath><clipPath
       id="clipPath250"
       clipPathUnits="userSpaceOnUse"><path
         id="path248"
         d="m 436.816,185.641 c -158.574,58.812 -180.308,227.785 -180.32,411.925 12.543,1.274 25.438,2.707 38.375,4.207 68.543,7.957 116.074,30.547 141.945,46.497 25.872,-15.95 73.407,-38.54 141.95,-46.497 12.933,-1.5 25.832,-2.933 38.375,-4.207 -0.012,-184.14 -21.746,-353.113 -180.325,-411.925 z" /></clipPath></defs><g
     transform="matrix(1.3333333,0,0,-1.3333333,0,116)"
     id="g10"><g
       transform="scale(0.1)"
       id="g12"><path
         id="path14"
         style="fill:#1f4fa2;fill-opacity:1;fill-rule:evenodd;stroke:none"
         d="M 963.375,305.055 V 551.84 h 128.755 c 17.51,0 32.2,-4.559 44.03,-13.692 13.32,-10.605 19.98,-25.652 19.98,-45.136 0,-31.817 -14.92,-51.797 -44.76,-59.942 v -0.738 c 35.51,-5.672 53.27,-27.625 53.27,-65.863 0,-18.496 -7.4,-33.422 -22.19,-44.766 -14.8,-11.098 -34.04,-16.648 -57.73,-16.648 z m 52.915,210.523 v -65.117 h 49.21 c 10.85,0 19.86,3.457 27.01,10.359 7.15,7.153 10.72,15.785 10.72,25.903 0,9.863 -4.07,17.39 -12.2,22.566 -6.66,4.195 -14.93,6.289 -24.79,6.289 z m 0,-101.375 v -72.891 h 52.91 c 13.81,0 24.54,3.7 32.19,11.102 6.9,6.66 10.36,15.781 10.36,27.379 0,11.098 -4.57,19.98 -13.7,26.637 -7.15,5.183 -14.67,7.773 -22.57,7.773 h -59.19" /><path
         id="path16"
         style="fill:#1f4fa2;fill-opacity:1;fill-rule:evenodd;stroke:none"
         d="m 1201.65,305.055 v 183.89 h 51.8 v -183.89 z m -0.74,214.968 v 34.039 h 52.91 v -34.039 h -52.91" /><path
         id="path18"
         style="fill:#1f4fa2;fill-opacity:1;fill-rule:nonzero;stroke:none"
         d="m 1302.29,305.055 h 51.8008 V 551.84 H 1302.29 Z" /><path
         id="path20"
         style="fill:#1f4fa2;fill-opacity:1;fill-rule:evenodd;stroke:none"
         d="M 1402.92,305.055 V 551.84 h 51.8 V 305.055 Z m 55.13,102.859 59.94,81.031 h 58.09 l -66.23,-81.031 76.96,-102.859 h -55.5 l -73.26,102.859" /><path
         id="path22"
         style="fill:#1f4fa2;fill-opacity:1;fill-rule:evenodd;stroke:none"
         d="m 1765.89,346.496 -4.81,-38.855 c -20.72,-4.68 -42.31,-7.024 -64.76,-7.024 -31.81,0 -56.73,8.875 -74.73,26.637 -18.01,17.758 -27.01,40.941 -27.01,69.555 0,29.109 7.89,52.296 23.68,69.562 16.77,18.008 40.69,27.008 71.78,27.008 26.64,0 47.85,-6.656 63.64,-19.981 17.27,-14.796 25.9,-36.378 25.9,-64.742 v -14.433 h -133.2 v -5.922 c 0,-16.774 5.67,-29.969 17.01,-39.586 10.61,-9.375 24.55,-14.067 41.81,-14.067 15.79,0 36.02,3.95 60.69,11.848 z m -119.51,72.52 h 83.98 c 0,28.613 -13.44,42.918 -40.32,42.918 -12.83,0 -23.07,-4.071 -30.71,-12.211 -7.65,-7.895 -11.96,-18.129 -12.95,-30.707" /><path
         id="path24"
         style="fill:#1f4fa2;fill-opacity:1;fill-rule:nonzero;stroke:none"
         d="m 1863.56,488.945 v -30.343 l 0.74,-0.739 c 11.84,23.68 34.78,35.516 68.82,35.516 48.35,0 72.52,-19.856 72.52,-59.567 V 305.055 h -51.8 v 116.918 c 0,9.125 -3.7,16.402 -11.1,21.832 -7.15,5.425 -16.03,8.136 -26.64,8.136 -18.01,0 -31.08,-5.55 -39.22,-16.648 -8.88,-11.84 -13.32,-31.574 -13.32,-59.203 v -71.035 h -51.79 v 183.89 h 51.79" /><path
         id="path26"
         style="fill:#1f4fa2;fill-opacity:1;fill-rule:nonzero;stroke:none"
         d="m 2112.2,488.945 h 46.62 V 452.68 h -46.62 v -81.766 c 0,-20.719 7.65,-31.082 22.94,-31.082 9.38,0 18.5,1.109 27.38,3.332 l -5.92,-37 c -12.83,-3.695 -26.64,-5.547 -41.44,-5.547 -18.5,0 -32.07,3.457 -40.7,10.356 -9.37,7.402 -14.06,19.855 -14.06,37.367 v 104.34 h -25.9 v 36.265 h 25.9 v 31.817 l 51.8,12.211 v -44.028" /><path
         id="path28"
         style="fill:#1f4fa2;fill-opacity:1;fill-rule:nonzero;stroke:none"
         d="m 2306.81,551.84 h 55.87 V 401.254 c 0,-40.949 19.74,-61.422 59.2,-61.422 39.47,0 59.21,20.473 59.21,61.422 V 551.84 h 55.87 V 384.602 c 0,-27.872 -10.61,-49.09 -31.82,-63.637 -19.98,-13.567 -47.74,-20.348 -83.26,-20.348 -35.51,0 -63.27,6.781 -83.25,20.348 -21.21,14.547 -31.82,35.765 -31.82,63.637 V 551.84" /><path
         id="path30"
         style="fill:#1f4fa2;fill-opacity:1;fill-rule:nonzero;stroke:none"
         d="m 2635,488.945 v -30.343 l 0.75,-0.739 c 11.83,23.68 34.77,35.516 68.81,35.516 48.35,0 72.53,-19.856 72.53,-59.567 V 305.055 h -51.81 v 116.918 c 0,9.125 -3.7,16.402 -11.1,21.832 -7.15,5.425 -16.03,8.136 -26.64,8.136 -18,0 -31.08,-5.55 -39.22,-16.648 -8.87,-11.84 -13.32,-31.574 -13.32,-59.203 v -71.035 h -51.79 v 183.89 H 2635" /><path
         id="path32"
         style="fill:#1f4fa2;fill-opacity:1;fill-rule:evenodd;stroke:none"
         d="m 2823.7,305.055 v 183.89 h 51.8 v -183.89 z m -0.74,214.968 v 34.039 h 52.91 v -34.039 h -52.91" /><path
         id="path34"
         style="fill:#1f4fa2;fill-opacity:1;fill-rule:nonzero;stroke:none"
         d="m 2972.81,305.055 -73.26,183.89 h 53.65 l 47.73,-136.902 h 0.74 l 46.99,136.902 h 52.54 l -73.26,-183.89 h -55.13" /><path
         id="path36"
         style="fill:#1f4fa2;fill-opacity:1;fill-rule:evenodd;stroke:none"
         d="m 3284.72,346.496 -4.81,-38.855 c -20.72,-4.68 -42.3,-7.024 -64.75,-7.024 -31.82,0 -56.74,8.875 -74.74,26.637 -18.01,17.758 -27.01,40.941 -27.01,69.555 0,29.109 7.89,52.296 23.68,69.562 16.77,18.008 40.7,27.008 71.78,27.008 26.64,0 47.85,-6.656 63.64,-19.981 17.27,-14.796 25.9,-36.378 25.9,-64.742 v -14.433 h -133.2 v -5.922 c 0,-16.774 5.67,-29.969 17.01,-39.586 10.62,-9.375 24.55,-14.067 41.82,-14.067 15.78,0 36.01,3.95 60.68,11.848 z m -119.51,72.52 h 83.99 c 0,28.613 -13.45,42.918 -40.33,42.918 -12.83,0 -23.07,-4.071 -30.71,-12.211 -7.65,-7.895 -11.96,-18.129 -12.95,-30.707" /><path
         id="path38"
         style="fill:#1f4fa2;fill-opacity:1;fill-rule:nonzero;stroke:none"
         d="m 3379.8,488.945 v -23.679 l 0.74,-0.743 c 11.1,19.239 27.01,28.856 47.73,28.856 4.94,0 10.24,-0.613 15.91,-1.844 l 4.44,-42.551 c -8.38,1.973 -15.41,2.957 -21.08,2.957 -30.1,0 -45.15,-17.879 -45.15,-53.648 v -93.238 h -51.8 v 183.89 h 49.21" /><path
         id="path40"
         style="fill:#1f4fa2;fill-opacity:1;fill-rule:nonzero;stroke:none"
         d="m 3472.3,308.379 -5.92,39.961 c 22.69,-9.121 40.45,-13.692 53.28,-13.692 6.91,0 12.95,1.364 18.13,4.075 6.41,2.961 9.62,7.273 9.62,12.949 0,7.402 -6.54,16.281 -19.61,26.64 -22.94,18.747 -34.9,28.614 -35.89,29.602 -13.07,12.82 -19.61,25.898 -19.61,39.215 0,10.609 3.58,19.855 10.73,27.754 11.59,12.332 30.96,18.496 58.09,18.496 15.05,0 33.3,-1.969 54.76,-5.914 l 4.07,-37.742 c -15.54,6.414 -31.45,9.617 -47.73,9.617 -16.03,0 -24.05,-5.059 -24.05,-15.168 0,-6.164 6.54,-14.43 19.61,-24.793 19.99,-16.031 31.95,-26.145 35.89,-30.336 13.07,-13.816 19.61,-27.75 19.61,-41.809 0,-15.789 -8.01,-27.875 -24.05,-36.261 -13.07,-6.899 -28.85,-10.356 -47.36,-10.356 -17.27,0 -37.12,2.59 -59.57,7.762" /><path
         id="path42"
         style="fill:#1f4fa2;fill-opacity:1;fill-rule:evenodd;stroke:none"
         d="m 3641.76,305.055 v 183.89 h 51.8 v -183.89 z m -0.74,214.968 v 34.039 h 52.91 v -34.039 h -52.91" /><path
         id="path44"
         style="fill:#1f4fa2;fill-opacity:1;fill-rule:nonzero;stroke:none"
         d="m 3802.34,488.945 h 46.61 V 452.68 h -46.61 v -81.766 c 0,-20.719 7.64,-31.082 22.94,-31.082 9.37,0 18.5,1.109 27.38,3.332 l -5.93,-37 c -12.82,-3.695 -26.64,-5.547 -41.43,-5.547 -18.51,0 -32.07,3.457 -40.7,10.356 -9.37,7.402 -14.06,19.855 -14.06,37.367 v 104.34 h -25.91 v 36.265 h 25.91 v 31.817 l 51.8,12.211 v -44.028" /><path
         id="path46"
         style="fill:#1f4fa2;fill-opacity:1;fill-rule:nonzero;stroke:none"
         d="m 3859.31,221.809 -7.02,39.589 c 11.59,-5.179 22.81,-7.769 33.66,-7.769 11.59,0 21.21,5.176 28.86,15.543 4.94,6.902 9.75,17.512 14.43,31.816 l -73.26,187.957 h 52.91 c 3.46,-11.347 11.59,-35.402 24.42,-72.156 10.12,-29.598 17.39,-53.769 21.83,-72.519 h 0.74 l 49.21,144.675 h 51.43 l -88.8,-223.105 c -6.42,-16.281 -14.67,-28.121 -24.79,-35.524 -11.34,-8.632 -26.64,-12.949 -45.88,-12.949 -12.83,0 -25.41,1.485 -37.74,4.442" /><path
         id="path48"
         style="fill:#ffffff;fill-opacity:1;fill-rule:nonzero;stroke:none"
         d="m 16.957,433.32 c 0,231.903 187.988,419.891 419.891,419.891 231.902,0 419.89,-187.988 419.89,-419.891 C 856.738,201.422 668.75,13.4336 436.848,13.4336 204.945,13.4336 16.957,201.422 16.957,433.32" /><path
         id="path50"
         style="fill:none;stroke:#ed1c24;stroke-width:14.45650005;stroke-linecap:butt;stroke-linejoin:miter;stroke-miterlimit:3.8636899;stroke-dasharray:none;stroke-opacity:1"
         d="m 16.957,433.32 c 0,231.903 187.988,419.891 419.891,419.891 231.902,0 419.89,-187.988 419.89,-419.891 C 856.738,201.422 668.75,13.4336 436.848,13.4336 204.945,13.4336 16.957,201.422 16.957,433.32 Z" /><path
         id="path52"
         style="fill:#1f4fa2;fill-opacity:1;fill-rule:evenodd;stroke:none"
         d="m 149.977,255.977 -10.606,-7.43 8.274,-11.813 c 1.476,-2.113 3.062,-3.543 4.761,-4.304 1.735,-0.762 3.614,-0.434 5.637,0.98 2.242,1.57 3.109,3.477 2.609,5.719 -0.55,1.851 -1.64,3.941 -3.269,6.269 z m -18.571,-13.004 -12.824,-8.981 8.27,-11.816 c 1.48,-2.11 2.91,-3.555 4.3,-4.332 2.539,-1.403 5.286,-1.067 8.246,1.004 2.5,1.754 3.497,3.988 2.985,6.711 -0.285,1.519 -1.149,3.332 -2.59,5.433 z m 40.223,-11.043 c -1.012,-2.91 -2.941,-5.364 -5.789,-7.36 -2.938,-2.058 -5.817,-2.968 -8.637,-2.738 -1.582,0.125 -3.348,0.703 -5.301,1.734 0.828,-3.082 0.707,-5.921 -0.359,-8.519 -1.055,-2.617 -2.961,-4.895 -5.723,-6.828 -2.851,-1.996 -5.91,-3.071 -9.179,-3.219 -2.141,-0.137 -4.203,0.121 -6.184,0.777 -2.258,0.723 -4.344,1.989 -6.254,3.793 -1.898,1.782 -3.711,3.907 -5.43,6.364 l -15.265,21.8 48.105,33.688 16.364,-23.371 c 4.039,-5.957 5.257,-11.328 3.652,-16.121" /><path
         id="path54"
         style="fill:#1f4fa2;fill-opacity:1;fill-rule:evenodd;stroke:none"
         d="m 186.508,208.727 -7.703,8.558 7.785,7.012 7.707,-8.559 z m -11.555,5.093 7.707,-8.558 -32.273,-29.059 -7.707,8.555 32.273,29.062" /><path
         id="path56"
         style="fill:#1f4fa2;fill-opacity:1;fill-rule:nonzero;stroke:none"
         d="m 169.281,156.75 -8.168,7.887 40.797,42.246 8.168,-7.887 -40.797,-42.246" /><path
         id="path58"
         style="fill:#1f4fa2;fill-opacity:1;fill-rule:nonzero;stroke:none"
         d="m 218.172,190.684 8.672,-7.02 -19.91,-24.586 21.273,3.793 10.93,-8.851 -22.254,-3.36 -4.488,-30.613 -10.653,8.629 3.606,20.972 -6.739,-0.851 -8.601,-10.621 -8.668,7.023 36.832,45.485" /><path
         id="path60"
         style="fill:#1f4fa2;fill-opacity:1;fill-rule:evenodd;stroke:none"
         d="m 251.09,134.477 c -2.078,-0.672 -4,-2.122 -5.77,-4.344 l 15.129,-9.09 c 1.387,2.668 1.77,5.086 1.153,7.258 -0.582,2.176 -1.907,3.887 -3.981,5.133 -2.25,1.355 -4.43,1.703 -6.531,1.043 z m 18.676,0.214 c 1.785,-2.652 2.73,-5.718 2.843,-9.195 0.129,-3.082 -0.464,-6.211 -1.781,-9.387 -0.777,-1.855 -2.152,-4.375 -4.125,-7.558 l -25.476,15.308 c -2.11,-3.816 -2.512,-7.14 -1.204,-9.968 0.782,-1.743 2.118,-3.18 4.008,-4.317 2.004,-1.203 3.973,-1.613 5.91,-1.226 1.051,0.203 2.168,0.695 3.348,1.472 l 9.938,-5.968 c -1.579,-2.059 -4.075,-3.61 -7.493,-4.6567 -5.363,-1.7031 -10.91,-0.832 -16.648,2.6137 -4.738,2.847 -7.996,6.882 -9.785,12.109 -1.785,5.223 -0.613,11.277 3.519,18.152 3.871,6.442 8.465,10.407 13.789,11.887 5.344,1.469 10.621,0.633 15.836,-2.496 3.098,-1.863 5.535,-4.117 7.321,-6.77" /><path
         id="path62"
         style="fill:#1f4fa2;fill-opacity:1;fill-rule:nonzero;stroke:none"
         d="m 321.258,109.859 c 1.785,-3.242 1.656,-7.386 -0.383,-12.4332 l -10.953,-27.1172 -10.789,4.3594 9.894,24.4922 c 0.856,2.1168 1.231,3.8558 1.121,5.2188 -0.199,2.488 -1.75,4.316 -4.656,5.492 -3.57,1.441 -6.633,0.918 -9.187,-1.574 -1.336,-1.324 -2.508,-3.227 -3.512,-5.715 l -8.805,-21.7968 -10.492,4.2421 16.238,40.1917 10.161,-4.106 -2.375,-5.875 c 2.191,1.524 4.074,2.496 5.648,2.918 2.824,0.75 5.898,0.453 9.223,-0.89 4.16,-1.68 7.117,-4.149 8.867,-7.407" /><path
         id="path64"
         style="fill:#1f4fa2;fill-opacity:1;fill-rule:nonzero;stroke:none"
         d="m 332.355,99.8945 2.094,7.8125 5.848,-1.566 3.137,11.699 10.851,-2.906 -3.137,-11.704 6.813,-1.824 -2.094,-7.8122 -6.808,1.8281 -5.942,-22.168 c -0.461,-1.7227 -0.531,-2.8555 -0.211,-3.4101 0.324,-0.5274 1.602,-1.0899 3.836,-1.6876 0.332,-0.0898 0.68,-0.1835 1.039,-0.2773 0.391,-0.0781 0.77,-0.1523 1.137,-0.2227 l -2.195,-8.1992 -5.246,1.2032 c -5.235,1.207 -8.536,3.0546 -9.903,5.539 -0.894,1.586 -0.992,3.6875 -0.289,6.3047 l 6.918,25.8242 -5.848,1.5664" /><path
         id="path66"
         style="fill:#1f4fa2;fill-opacity:1;fill-rule:nonzero;stroke:none"
         d="m 393.609,110.203 12.442,-0.867 -2.516,-36.0118 c -0.285,-4.0273 -0.012,-7 0.813,-8.9219 1.254,-3.3906 4.371,-5.2578 9.351,-5.6093 4.957,-0.3438 8.289,1.0703 10.004,4.2539 1.082,1.789 1.766,4.6953 2.047,8.7226 l 2.52,36.0115 12.441,-0.871 -2.52,-36.0077 c -0.437,-6.2304 -1.742,-11.0117 -3.918,-14.3437 -4.05,-6.1094 -11.148,-8.8086 -21.296,-8.0977 -10.149,0.711 -16.817,4.3711 -20,10.9844 -1.692,3.6055 -2.321,8.5235 -1.883,14.75 l 2.515,36.0077" /><path
         id="path68"
         style="fill:#1f4fa2;fill-opacity:1;fill-rule:nonzero;stroke:none"
         d="m 489.84,94.5117 c 3.133,-1.9726 5.031,-5.6601 5.695,-11.0625 l 3.563,-29.0273 -11.547,-1.418 -3.219,26.2188 c -0.277,2.2656 -0.797,3.9687 -1.551,5.1093 -1.379,2.0782 -3.625,2.9258 -6.734,2.543 -3.824,-0.4688 -6.246,-2.4102 -7.274,-5.8281 -0.527,-1.8047 -0.628,-4.0391 -0.3,-6.7031 l 2.863,-23.3321 -11.231,-1.3789 -5.281,43.0274 10.875,1.3359 0.77,-6.2891 c 1.179,2.3946 2.355,4.1563 3.527,5.2891 2.106,2.0273 4.938,3.2578 8.496,3.6953 4.457,0.5469 8.238,-0.1797 11.348,-2.1797" /><path
         id="path70"
         style="fill:#1f4fa2;fill-opacity:1;fill-rule:evenodd;stroke:none"
         d="m 516.336,107.285 -11.262,-2.39 -2.179,10.246 11.261,2.394 z m -10.188,-7.4569 11.266,2.3909 9.027,-42.4768 -11.261,-2.3945 -9.032,42.4804" /><path
         id="path72"
         style="fill:#1f4fa2;fill-opacity:1;fill-rule:nonzero;stroke:none"
         d="m 556.105,113.863 11.528,3.969 -0.664,-46.1601 -11.34,-3.9024 -28.871,35.9885 12.054,4.152 18.981,-27.3436 -1.688,33.2966" /><path
         id="path74"
         style="fill:#1f4fa2;fill-opacity:1;fill-rule:evenodd;stroke:none"
         d="m 590.484,117.016 c -0.566,-2.106 -0.402,-4.508 0.5,-7.204 l 15.864,7.739 c -1.485,2.617 -3.305,4.254 -5.457,4.918 -2.145,0.699 -4.301,0.515 -6.473,-0.543 -2.367,-1.153 -3.844,-2.789 -4.434,-4.91 z m 9.993,15.781 c 3.195,0.051 6.281,-0.824 9.257,-2.621 2.657,-1.574 4.957,-3.778 6.903,-6.61 1.133,-1.664 2.5,-4.187 4.093,-7.578 l -26.714,-13.031 c 2.054,-3.8437 4.621,-5.9882 7.707,-6.4336 1.886,-0.2929 3.82,0.043 5.8,1.0118 2.102,1.0234 3.516,2.4531 4.247,4.2848 0.402,0.996 0.597,2.2 0.589,3.614 l 10.422,5.082 c 0.864,-2.446 0.805,-5.383 -0.179,-8.821 -1.489,-5.4255 -5.243,-9.6052 -11.258,-12.5388 -4.969,-2.4218 -10.129,-2.9609 -15.485,-1.6093 -5.355,1.3437 -9.793,5.625 -13.308,12.8361 -3.293,6.754 -4.113,12.765 -2.461,18.039 1.683,5.281 5.254,9.254 10.722,11.922 3.247,1.582 6.465,2.398 9.665,2.453" /><path
         id="path76"
         style="fill:#1f4fa2;fill-opacity:1;fill-rule:nonzero;stroke:none"
         d="m 637.938,158.363 c 0.136,0.086 0.417,0.258 0.859,0.512 l 6.336,-9.758 c -0.645,-0.324 -1.207,-0.629 -1.692,-0.91 -0.48,-0.281 -0.867,-0.516 -1.156,-0.703 -3.832,-2.488 -5.597,-5.406 -5.289,-8.754 0.176,-1.883 1.211,-4.281 3.106,-7.199 l 11.304,-17.41 -9.59,-6.227 -23.652,36.422 9.09,5.902 4.121,-6.347 c -0.105,3.382 0.098,5.871 0.609,7.472 0.813,2.649 2.649,4.899 5.5,6.754 0.176,0.113 0.328,0.195 0.454,0.246" /><path
         id="path78"
         style="fill:#1f4fa2;fill-opacity:1;fill-rule:nonzero;stroke:none"
         d="m 672.465,146.91 c 1.484,-1.39 2.801,-2.156 3.957,-2.297 2.051,-0.254 4.531,0.84 7.441,3.282 1.711,1.433 2.852,2.824 3.422,4.167 0.59,1.364 0.457,2.551 -0.394,3.571 -0.821,0.976 -1.852,1.375 -3.094,1.203 -1.238,-0.176 -4.996,-1.836 -11.266,-4.981 -4.551,-2.222 -8.187,-3.281 -10.91,-3.175 -2.707,0.086 -5.156,1.433 -7.34,4.035 -2.578,3.074 -3.59,6.715 -3.031,10.93 0.559,4.246 3.027,8.207 7.402,11.878 4.149,3.485 8.227,5.485 12.231,6 4.008,0.555 7.914,-1.043 11.715,-4.785 l -8.7,-7.3 c -1.058,1.015 -2.117,1.636 -3.171,1.863 -1.95,0.375 -4.071,-0.399 -6.372,-2.328 -1.89,-1.586 -2.996,-3.02 -3.316,-4.293 -0.297,-1.254 -0.113,-2.278 0.551,-3.075 0.84,-0.996 1.871,-1.359 3.101,-1.089 1.247,0.25 4.946,1.98 11.09,5.195 4.141,2.086 7.766,3.035 10.879,2.836 3.11,-0.235 5.715,-1.602 7.817,-4.106 2.765,-3.293 3.796,-7.023 3.093,-11.183 -0.703,-4.125 -3.617,-8.34 -8.742,-12.641 -5.23,-4.39 -10.016,-6.535 -14.363,-6.437 -4.344,0.136 -7.949,1.91 -10.82,5.332 l 8.82,7.398" /><path
         id="path80"
         style="fill:#1f4fa2;fill-opacity:1;fill-rule:evenodd;stroke:none"
         d="m 686.605,208.008 -7.855,-8.422 -7.664,7.148 7.855,8.418 z m -4.066,-11.953 7.852,8.422 31.761,-29.618 -7.851,-8.421 -31.762,29.617" /><path
         id="path82"
         style="fill:#1f4fa2;fill-opacity:1;fill-rule:nonzero;stroke:none"
         d="m 702.555,205.035 -6.285,5.09 3.808,4.707 -9.41,7.621 7.07,8.735 9.41,-7.626 4.438,5.481 6.289,-5.09 -4.437,-5.48 17.832,-14.442 c 1.386,-1.121 2.394,-1.648 3.027,-1.578 0.617,0.082 1.648,1.02 3.105,2.817 0.215,0.269 0.442,0.546 0.676,0.835 0.231,0.329 0.453,0.645 0.664,0.95 l 6.598,-5.34 -3.231,-4.305 c -3.234,-4.289 -6.261,-6.555 -9.089,-6.793 -1.813,-0.172 -3.77,0.594 -5.879,2.301 l -20.778,16.824 -3.808,-4.707" /><path
         id="path84"
         style="fill:#1f4fa2;fill-opacity:1;fill-rule:nonzero;stroke:none"
         d="m 762.352,211.148 0.828,1.172 c 0.636,0.922 1.164,1.84 1.59,2.77 0.421,0.926 0.613,1.808 0.574,2.648 -0.032,0.801 -0.508,1.817 -1.43,3.051 -0.906,1.254 -1.523,1.922 -1.848,2.004 l -46.898,10.508 6.691,10.715 32.192,-8.934 -22.414,24.574 6.394,10.239 28.328,-35.27 c 5.461,-6.797 8.582,-11.426 9.364,-13.887 0.804,-2.472 -0.125,-5.84 -2.785,-10.097 -0.536,-0.856 -0.977,-1.536 -1.325,-2.039 -0.32,-0.52 -0.84,-1.274 -1.554,-2.27 l -7.707,4.816" /><path
         id="path86"
         style="fill:none;stroke:#ed1c24;stroke-width:9.63770008;stroke-linecap:butt;stroke-linejoin:miter;stroke-miterlimit:3.8636899;stroke-dasharray:none;stroke-opacity:1"
         d="m 139.25,433.32 c 0,164.364 133.234,297.602 297.598,297.602 164.363,0 297.597,-133.238 297.597,-297.602 0,-164.359 -133.234,-297.597 -297.597,-297.597 -164.364,0 -297.598,133.238 -297.598,297.597 z" /><path
         id="path88"
         style="fill:#1f4fa2;fill-opacity:1;fill-rule:evenodd;stroke:none"
         d="m 158.926,608.898 -7.336,-9.734 -46.902,35.344 7.335,9.734 z m -66.5119,36.004 6.2343,8.274 7.5426,-5.684 -6.234,-8.273 -7.5429,5.683" /><path
         id="path90"
         style="fill:#1f4fa2;fill-opacity:1;fill-rule:nonzero;stroke:none"
         d="m 153.125,673.887 c 2.109,1.125 4.352,1.636 6.723,1.527 2.011,-0.09 3.769,-0.578 5.281,-1.457 1.488,-0.863 3.738,-2.516 6.754,-4.957 l 19.816,-16.047 -7.297,-9.008 -20.531,16.621 c -1.816,1.473 -3.531,2.348 -5.148,2.633 -2.219,0.465 -4.243,-0.426 -6.063,-2.676 -1.89,-2.332 -2.543,-4.746 -1.961,-7.23 0.578,-2.453 2.313,-4.848 5.203,-7.188 l 18.27,-14.793 -7.121,-8.792 -45.489,36.832 7.122,8.793 16.132,-13.063 c -0.921,2.867 -1.089,5.445 -0.5,7.738 0.586,2.325 1.633,4.418 3.137,6.278 1.688,2.082 3.578,3.679 5.672,4.789" /><path
         id="path92"
         style="fill:#1f4fa2;fill-opacity:1;fill-rule:nonzero;stroke:none"
         d="m 197.738,678.41 c 1.551,-1.312 2.91,-2.012 4.071,-2.086 2.062,-0.148 4.484,1.074 7.261,3.664 1.633,1.52 2.696,2.969 3.196,4.34 0.519,1.391 0.324,2.574 -0.582,3.547 -0.868,0.93 -1.918,1.277 -3.149,1.039 -1.23,-0.238 -4.894,-2.094 -10.992,-5.562 -4.426,-2.461 -8,-3.707 -10.731,-3.743 -2.707,-0.058 -5.218,1.161 -7.539,3.645 -2.734,2.934 -3.933,6.516 -3.597,10.754 0.336,4.273 2.594,8.355 6.769,12.254 3.961,3.695 7.93,5.902 11.903,6.629 3.972,0.765 7.957,-0.625 11.949,-4.164 l -8.305,-7.747 c -1.113,0.961 -2.203,1.524 -3.269,1.696 -1.961,0.273 -4.043,-0.614 -6.239,-2.66 -1.804,-1.684 -2.836,-3.172 -3.086,-4.457 -0.234,-1.27 0.004,-2.286 0.711,-3.043 0.887,-0.954 1.938,-1.262 3.153,-0.926 1.234,0.312 4.836,2.234 10.8,5.765 4.028,2.305 7.602,3.438 10.719,3.407 3.117,-0.074 5.789,-1.305 8.02,-3.692 2.933,-3.148 4.16,-6.82 3.676,-11.011 -0.485,-4.157 -3.176,-8.516 -8.071,-13.079 -4.992,-4.656 -9.66,-7.05 -14.008,-7.179 -4.343,-0.094 -8.035,1.492 -11.082,4.758 l 8.422,7.851" /><path
         id="path94"
         style="fill:#1f4fa2;fill-opacity:1;fill-rule:evenodd;stroke:none"
         d="m 243.984,724.766 c -0.328,-0.782 -0.714,-1.508 -1.156,-2.172 -0.433,-0.629 -1.105,-1.406 -2.016,-2.336 L 239,718.406 c -1.715,-1.722 -2.82,-3.129 -3.32,-4.222 -0.84,-1.852 -0.637,-3.672 0.613,-5.457 1.109,-1.59 2.352,-2.438 3.727,-2.547 1.378,-0.071 2.699,0.336 3.96,1.218 2.004,1.403 3.43,3.278 4.282,5.625 0.875,2.364 0.258,5.125 -1.856,8.282 z m -8.687,0.386 c 1.566,1.422 2.605,2.551 3.117,3.399 0.93,1.492 0.977,2.84 0.141,4.035 -1.024,1.461 -2.235,2.102 -3.637,1.93 -1.398,-0.137 -3.074,-0.891 -5.035,-2.258 -2.195,-1.539 -3.371,-3.172 -3.524,-4.903 -0.089,-1.261 0.239,-2.652 0.981,-4.175 l -8.977,-6.285 c -1.98,3.246 -2.902,6.414 -2.758,9.496 0.262,4.855 3.387,9.379 9.372,13.57 3.894,2.727 7.894,4.375 12,4.949 4.105,0.57 7.66,-1.285 10.664,-5.57 l 11.425,-16.32 c 0.793,-1.133 1.774,-2.489 2.946,-4.067 0.918,-1.172 1.679,-1.871 2.289,-2.09 0.609,-0.222 1.32,-0.261 2.125,-0.117 l 0.961,-1.371 -10.117,-7.086 c -0.786,0.52 -1.454,1.059 -2.004,1.613 -0.551,0.555 -1.141,1.211 -1.77,1.969 -0.308,-2.289 -0.957,-4.512 -1.949,-6.664 -1.195,-2.555 -3.055,-4.715 -5.574,-6.484 -3.223,-2.254 -6.528,-3.207 -9.918,-2.856 -3.383,0.387 -6.254,2.266 -8.617,5.641 -3.063,4.371 -3.594,8.719 -1.59,13.039 1.101,2.359 3.289,5.023 6.558,7.996 l 2.891,2.609" /><path
         id="path96"
         style="fill:#1f4fa2;fill-opacity:1;fill-rule:nonzero;stroke:none"
         d="m 291.191,772.32 c 3.59,-0.906 6.536,-3.828 8.836,-8.761 l 12.36,-26.504 -10.543,-4.918 -11.164,23.941 c -0.965,2.067 -1.985,3.527 -3.055,4.379 -1.953,1.551 -4.352,1.664 -7.191,0.34 -3.493,-1.629 -5.196,-4.227 -5.118,-7.793 0.059,-1.883 0.653,-4.035 1.786,-6.469 l 9.937,-21.301 -10.258,-4.785 -18.32,39.289 9.93,4.629 2.679,-5.742 c 0.379,2.641 0.953,4.68 1.715,6.121 1.379,2.578 3.692,4.625 6.942,6.141 4.07,1.894 7.89,2.371 11.464,1.433" /><path
         id="path98"
         style="fill:#1f4fa2;fill-opacity:1;fill-rule:evenodd;stroke:none"
         d="m 350.789,799.832 7.313,-37.625 11.109,2.156 c 5.684,1.106 9.101,4.68 10.254,10.723 0.629,3.312 0.527,7.094 -0.297,11.348 -1.141,5.863 -2.941,10.183 -5.402,12.953 -2.438,2.797 -6.395,3.664 -11.868,2.601 z m 20.356,13.047 c 4.3,-0.543 8.043,-2.348 11.238,-5.406 2.566,-2.477 4.535,-5.317 5.918,-8.508 1.375,-3.199 2.359,-6.309 2.949,-9.332 1.488,-7.664 1.211,-14.457 -0.828,-20.375 -2.781,-7.981 -8.524,-12.817 -17.231,-14.512 l -24.836,-4.824 -11.207,57.648 24.836,4.828 c 3.582,0.641 6.633,0.801 9.161,0.481" /><path
         id="path100"
         style="fill:#1f4fa2;fill-opacity:1;fill-rule:evenodd;stroke:none"
         d="m 434.859,772.383 c 1.696,2.426 2.469,5.816 2.317,10.168 -0.153,4.351 -1.16,7.668 -3.02,9.941 -1.859,2.301 -4.449,3.391 -7.769,3.278 -3.317,-0.118 -5.836,-1.387 -7.559,-3.813 -1.699,-2.398 -2.469,-5.773 -2.32,-10.125 0.152,-4.355 1.16,-7.684 3.023,-9.984 1.887,-2.297 4.489,-3.391 7.805,-3.274 3.32,0.117 5.828,1.387 7.523,3.809 z m 9.297,-5.973 c -3.504,-4.64 -8.988,-7.09 -16.445,-7.351 -7.461,-0.262 -13.102,1.8 -16.922,6.187 -3.82,4.41 -5.844,9.801 -6.066,16.172 -0.219,6.266 1.425,11.758 4.925,16.477 3.504,4.722 8.985,7.21 16.446,7.472 7.457,0.262 13.097,-1.844 16.922,-6.305 3.824,-4.464 5.847,-9.832 6.066,-16.093 0.223,-6.371 -1.418,-11.891 -4.926,-16.559" /><path
         id="path102"
         style="fill:#1f4fa2;fill-opacity:1;fill-rule:evenodd;stroke:none"
         d="m 487.715,769.316 c 2.097,1.746 3.449,4.786 4.058,9.129 0.575,4.075 0.141,7.301 -1.293,9.676 -1.41,2.371 -3.562,3.758 -6.457,4.164 -3.945,0.555 -6.929,-0.914 -8.949,-4.414 -1.066,-1.859 -1.801,-4.238 -2.211,-7.133 -0.347,-2.5 -0.242,-4.781 0.328,-6.843 1.016,-3.844 3.493,-6.043 7.442,-6.598 2.629,-0.371 4.988,0.305 7.082,2.019 z m 0.512,31.395 c 2.574,-1.52 4.492,-3.906 5.75,-7.168 l 0.871,6.195 10.929,-1.535 -5.734,-40.797 c -0.781,-5.551 -2.301,-9.601 -4.563,-12.152 -3.89,-4.391 -10.386,-5.945 -19.488,-4.664 -5.496,0.769 -9.828,2.48 -12.996,5.125 -3.172,2.644 -4.641,6.137 -4.402,10.476 l 12.23,-1.718 c 0.129,-1.36 0.512,-2.379 1.137,-3.059 1.066,-1.195 3.035,-1.996 5.902,-2.398 4.051,-0.571 6.949,0.406 8.699,2.922 1.137,1.609 1.993,4.468 2.571,8.57 l 0.387,2.762 c -1.336,-1.692 -2.688,-2.907 -4.051,-3.657 -2.481,-1.394 -5.504,-1.84 -9.082,-1.336 -5.524,0.774 -9.672,3.328 -12.442,7.661 -2.742,4.355 -3.644,9.847 -2.715,16.476 0.899,6.391 3.243,11.535 7.04,15.426 3.792,3.918 8.609,5.469 14.453,4.648 2.156,-0.304 3.988,-0.898 5.504,-1.777 z m 8.75,7.578 c -2.61,-1.562 -5.938,-2.062 -9.989,-1.492 -4.05,0.57 -7.113,1.965 -9.187,4.187 -2.074,2.25 -2.996,5.411 -2.774,9.485 l 5.328,-0.75 c 0.028,-2.473 1.059,-4.293 3.094,-5.465 1.141,-0.668 2.606,-1.129 4.395,-1.379 1.785,-0.254 3.32,-0.215 4.601,0.117 2.278,0.563 3.774,2.031 4.481,4.399 l 5.328,-0.75 c -0.91,-3.977 -2.668,-6.758 -5.277,-8.352" /><path
         id="path104"
         style="fill:#1f4fa2;fill-opacity:1;fill-rule:nonzero;stroke:none"
         d="m 546.836,789.027 c 0.152,-0.043 0.469,-0.14 0.953,-0.297 l -3.012,-11.238 c -0.672,0.262 -1.273,0.481 -1.808,0.649 -0.531,0.171 -0.965,0.3 -1.297,0.39 -4.414,1.184 -7.762,0.539 -10.043,-1.929 -1.281,-1.387 -2.371,-3.766 -3.274,-7.125 l -5.371,-20.051 -11.046,2.961 11.242,41.949 10.468,-2.805 -1.96,-7.312 c 2.441,2.34 4.429,3.855 5.96,4.547 2.512,1.168 5.414,1.312 8.7,0.433 0.203,-0.054 0.367,-0.113 0.488,-0.172" /><path
         id="path106"
         style="fill:#1f4fa2;fill-opacity:1;fill-rule:evenodd;stroke:none"
         d="m 574.746,753.949 c -0.832,-0.152 -1.652,-0.222 -2.449,-0.215 -0.766,0.024 -1.781,0.161 -3.055,0.418 l -2.543,0.512 c -2.375,0.5 -4.16,0.664 -5.347,0.484 -2.012,-0.304 -3.43,-1.464 -4.243,-3.484 -0.726,-1.797 -0.761,-3.301 -0.105,-4.512 0.691,-1.199 1.75,-2.082 3.18,-2.66 2.265,-0.918 4.613,-1.094 7.046,-0.527 2.461,0.551 4.438,2.574 5.934,6.066 z m -4.406,7.492 c 2.047,-0.539 3.558,-0.793 4.547,-0.761 1.761,0.035 2.914,0.726 3.465,2.082 0.664,1.648 0.543,3.015 -0.364,4.101 -0.875,1.098 -2.422,2.094 -4.636,2.989 -2.489,1.007 -4.497,1.101 -6.028,0.289 -1.109,-0.614 -2.097,-1.645 -2.972,-3.098 l -10.157,4.105 c 1.641,3.43 3.797,5.926 6.461,7.485 4.215,2.426 9.711,2.265 16.481,-0.469 4.41,-1.781 7.972,-4.238 10.691,-7.371 2.715,-3.133 3.09,-7.125 1.133,-11.973 L 581.5,740.348 c -0.52,-1.282 -1.121,-2.844 -1.809,-4.684 -0.484,-1.41 -0.652,-2.43 -0.503,-3.062 0.144,-0.633 0.496,-1.247 1.058,-1.844 l -0.629,-1.555 -11.449,4.629 c 0.004,0.941 0.094,1.793 0.258,2.559 0.164,0.761 0.394,1.617 0.691,2.558 -2.09,-0.992 -4.308,-1.656 -6.652,-1.996 -2.793,-0.391 -5.617,-0.008 -8.477,1.145 -3.644,1.472 -6.242,3.726 -7.797,6.761 -1.515,3.047 -1.503,6.481 0.039,10.297 2,4.949 5.356,7.762 10.067,8.438 2.582,0.359 6.008,-0.024 10.281,-1.145 l 3.762,-1.008" /><path
         id="path108"
         style="fill:#1f4fa2;fill-opacity:1;fill-rule:nonzero;stroke:none"
         d="m 658.934,732.086 c 1.152,-1.637 1.859,-3.645 2.117,-6.027 0.199,-1.938 -0.125,-3.946 -0.965,-6.024 -0.574,-1.371 -1.629,-3.238 -3.16,-5.597 l -14.977,-22.915 -9.758,6.336 15.063,23.192 c 0.894,1.379 1.41,2.66 1.543,3.844 0.254,2.242 -0.758,4.097 -3.027,5.574 -2.629,1.707 -5.153,1.797 -7.575,0.265 -1.265,-0.828 -2.425,-2.054 -3.48,-3.679 l -14.082,-21.688 -9.59,6.231 14.082,21.683 c 1.402,2.16 2.199,3.879 2.391,5.149 0.339,2.277 -0.661,4.179 -2.996,5.699 -2.719,1.766 -5.118,2.07 -7.196,0.918 -1.164,-0.668 -2.39,-1.996 -3.676,-3.981 l -14.234,-21.918 -9.656,6.27 23.609,36.355 9.254,-6.007 -3.449,-5.317 c 2.41,1.129 4.398,1.75 5.965,1.875 2.773,0.227 5.633,-0.617 8.574,-2.527 2.785,-1.809 4.637,-3.883 5.555,-6.223 0.644,-2.031 0.742,-4.172 0.3,-6.414 2.633,1.328 5.204,1.891 7.704,1.695 2.613,-0.273 5.121,-1.187 7.527,-2.75 1.601,-1.043 2.98,-2.382 4.137,-4.019" /><path
         id="path110"
         style="fill:#1f4fa2;fill-opacity:1;fill-rule:evenodd;stroke:none"
         d="m 683.547,681.094 c -0.832,0.16 -1.621,0.386 -2.363,0.679 -0.707,0.293 -1.606,0.789 -2.7,1.485 l -2.191,1.39 c -2.039,1.317 -3.645,2.106 -4.82,2.368 -1.989,0.437 -3.727,-0.141 -5.211,-1.731 -1.324,-1.422 -1.895,-2.812 -1.715,-4.176 0.215,-1.367 0.887,-2.574 2.015,-3.625 1.786,-1.664 3.918,-2.672 6.391,-3.019 2.496,-0.363 5.067,0.816 7.715,3.539 z m -1.426,8.578 c 1.715,-1.238 3.039,-2.02 3.973,-2.344 1.656,-0.601 2.98,-0.363 3.976,0.703 1.215,1.301 1.59,2.621 1.133,3.957 -0.426,1.34 -1.512,2.824 -3.258,4.453 -1.961,1.832 -3.804,2.641 -5.527,2.43 -1.25,-0.176 -2.547,-0.785 -3.883,-1.828 l -8.012,7.473 c 2.766,2.617 5.672,4.175 8.719,4.675 4.801,0.75 9.875,-1.367 15.219,-6.347 3.477,-3.242 5.922,-6.813 7.336,-10.711 1.414,-3.895 0.336,-7.758 -3.235,-11.586 l -13.585,-14.57 c -0.942,-1.008 -2.063,-2.25 -3.364,-3.727 -0.957,-1.141 -1.48,-2.031 -1.57,-2.676 -0.09,-0.64 0.016,-1.34 0.328,-2.101 l -1.141,-1.223 -9.035,8.422 c 0.344,0.879 0.731,1.644 1.16,2.297 0.43,0.652 0.95,1.367 1.563,2.14 -2.309,-0.175 -4.617,0 -6.926,0.52 -2.746,0.637 -5.25,2.008 -7.5,4.105 -2.879,2.684 -4.496,5.719 -4.859,9.106 -0.324,3.39 0.918,6.59 3.726,9.601 3.641,3.907 7.782,5.329 12.422,4.27 2.539,-0.59 5.602,-2.172 9.188,-4.754 l 3.152,-2.285" /><path
         id="path112"
         style="fill:#1f4fa2;fill-opacity:1;fill-rule:nonzero;stroke:none"
         d="m 723.559,645.895 c 1.125,1.187 1.918,2.527 2.379,4.027 0.558,2.098 -0.004,4.187 -1.692,6.269 -2.41,2.973 -5.531,3.813 -9.367,2.516 -2.039,-0.691 -4.356,-2.094 -6.957,-4.199 -2.477,-2.004 -4.238,-3.906 -5.274,-5.707 -1.957,-3.324 -1.753,-6.442 0.602,-9.356 1.672,-2.062 3.414,-3.074 5.23,-3.039 1.821,0.035 3.692,0.676 5.618,1.93 l 7.293,-9.012 c -2.852,-1.965 -6.176,-3.051 -9.973,-3.258 -6.102,-0.359 -11.348,2.176 -15.742,7.606 -4.399,5.43 -6.024,10.726 -4.875,15.894 1.148,5.168 4.289,9.832 9.429,13.993 5.801,4.699 11.458,6.937 16.969,6.718 5.508,-0.222 10.278,-2.82 14.309,-7.793 3.426,-4.234 5.273,-8.461 5.551,-12.679 0.289,-4.243 -1.77,-8.559 -6.18,-12.95 l -7.32,9.04" /><path
         id="path114"
         style="fill:#1f4fa2;fill-opacity:1;fill-rule:nonzero;stroke:none"
         d="m 750.969,633.605 6.101,-9.765 -36.828,-23.016 -6.101,9.766 36.828,23.015" /><path
         id="path116"
         style="fill:#ffffff;fill-opacity:1;fill-rule:nonzero;stroke:none"
         d="m 436.82,157.512 c 192,64.144 205.598,272.636 203.875,460.679 -19.449,1.645 -40.484,3.914 -61.621,6.368 -80.039,9.293 -127.84,41.078 -142.258,51.839 -14.414,-10.761 -62.214,-42.546 -142.254,-51.839 -21.136,-2.454 -42.171,-4.723 -61.621,-6.368 -1.722,-188.043 11.875,-396.535 203.879,-460.679" /><path
         id="path118"
         style="fill:none;stroke:#ffffff;stroke-width:18.13640022;stroke-linecap:butt;stroke-linejoin:miter;stroke-miterlimit:3.8636899;stroke-dasharray:none;stroke-opacity:1"
         d="m 436.82,157.512 c 192,64.144 205.598,272.636 203.875,460.679 -19.449,1.645 -40.484,3.914 -61.621,6.368 -80.039,9.293 -127.84,41.078 -142.258,51.839 -14.414,-10.761 -62.214,-42.546 -142.254,-51.839 -21.136,-2.454 -42.171,-4.723 -61.621,-6.368 -1.722,-188.043 11.875,-396.535 203.879,-460.679 z" /><path
         id="path120"
         style="fill:#ffffff;fill-opacity:1;fill-rule:nonzero;stroke:none"
         d="m 247.863,604.727 c 15.875,1.492 32.551,3.316 49.293,5.261 71.442,8.293 118.274,34.032 139.696,48.36 21.418,-14.328 68.25,-40.067 139.691,-48.36 16.742,-1.945 33.418,-3.769 49.297,-5.261 C 626.754,421.137 609.016,236.098 436.852,175.633 264.68,236.098 246.949,421.145 247.863,604.727" /><path
         id="path122"
         style="fill:none;stroke:#ed1c24;stroke-width:8.04652023;stroke-linecap:butt;stroke-linejoin:miter;stroke-miterlimit:3.8636899;stroke-dasharray:none;stroke-opacity:1"
         d="m 247.863,604.727 c 15.875,1.492 32.551,3.316 49.293,5.261 71.442,8.293 118.274,34.032 139.696,48.36 21.418,-14.328 68.25,-40.067 139.691,-48.36 16.742,-1.945 33.418,-3.769 49.297,-5.261 C 626.754,421.137 609.016,236.098 436.852,175.633 264.68,236.098 246.949,421.145 247.863,604.727 Z" /><path
         id="path124"
         style="fill:#ffffff;fill-opacity:1;fill-rule:nonzero;stroke:none"
         d="m 436.816,185.641 c -158.574,58.812 -180.308,227.785 -180.32,411.925 12.543,1.274 25.438,2.707 38.375,4.207 68.543,7.957 116.074,30.547 141.945,46.497 25.872,-15.95 73.407,-38.54 141.95,-46.497 12.933,-1.5 25.832,-2.933 38.375,-4.207 -0.012,-184.14 -21.746,-353.113 -180.325,-411.925" /><g
         id="g126"><g
           clip-path="url(#clipPath132)"
           id="g128"><path
             id="path134"
             style="fill:#1f4fa2;fill-opacity:1;fill-rule:evenodd;stroke:none"
             d="M 593.539,660.145 623.586,638.312 436.844,287.059 v 0 l 156.695,373.086" /></g></g><g
         id="g136"><g
           clip-path="url(#clipPath142)"
           id="g138"><g
             clip-path="url(#clipPath148)"
             id="g144"><path
               id="path150"
               style="fill:#ed1c24;fill-opacity:1;fill-rule:nonzero;stroke:none"
               d="m 559.934,561.523 h 21.7617 v 11.2383 H 559.934 Z" /></g></g></g><g
         id="g152"><g
           clip-path="url(#clipPath158)"
           id="g154"><path
             id="path160"
             style="fill:none;stroke:#ffffff;stroke-width:2.32115006;stroke-linecap:butt;stroke-linejoin:miter;stroke-miterlimit:3.8636899;stroke-dasharray:none;stroke-opacity:1"
             d="M 593.539,660.145 623.586,638.312 436.844,287.059 v 0 z" /><path
             id="path162"
             style="fill:#1f4fa2;fill-opacity:1;fill-rule:evenodd;stroke:none"
             d="m 418.008,704.477 h 37.601 L 436.816,287.059 v 0 l -18.808,417.418" /><path
             id="path164"
             style="fill:none;stroke:#ffffff;stroke-width:2.32115006;stroke-linecap:butt;stroke-linejoin:miter;stroke-miterlimit:3.8636899;stroke-dasharray:none;stroke-opacity:1"
             d="m 418.008,704.477 h 37.601 L 436.816,287.059 v 0 z" /><path
             id="path166"
             style="fill:#1f4fa2;fill-opacity:1;fill-rule:evenodd;stroke:none"
             d="m 464.07,704.047 36.68,-5.809 -63.934,-411.179 v 0 l 27.254,416.988" /><path
             id="path168"
             style="fill:none;stroke:#ffffff;stroke-width:2.32115006;stroke-linecap:butt;stroke-linejoin:miter;stroke-miterlimit:3.8636899;stroke-dasharray:none;stroke-opacity:1"
             d="m 464.07,704.047 36.68,-5.809 -63.934,-411.179 v 0 z" /><path
             id="path170"
             style="fill:#1f4fa2;fill-opacity:1;fill-rule:evenodd;stroke:none"
             d="m 509.301,696.242 35.32,-11.476 -107.805,-397.707 v 0 l 72.485,409.183" /><path
             id="path172"
             style="fill:none;stroke:#ffffff;stroke-width:2.32115006;stroke-linecap:butt;stroke-linejoin:miter;stroke-miterlimit:3.8636899;stroke-dasharray:none;stroke-opacity:1"
             d="m 509.301,696.242 35.32,-11.476 -107.805,-397.707 v 0 z" /><path
             id="path174"
             style="fill:#1f4fa2;fill-opacity:1;fill-rule:evenodd;stroke:none"
             d="M 553.758,681.438 586.547,664 436.816,287.059 v 0 l 116.942,394.379" /><path
             id="path176"
             style="fill:none;stroke:#ffffff;stroke-width:2.32115006;stroke-linecap:butt;stroke-linejoin:miter;stroke-miterlimit:3.8636899;stroke-dasharray:none;stroke-opacity:1"
             d="M 553.758,681.438 586.547,664 436.816,287.059 v 0 z" /><path
             id="path178"
             style="fill:#1f4fa2;fill-opacity:1;fill-rule:evenodd;stroke:none"
             d="M 630.867,631.996 656.664,605.281 436.816,287.059 v 0 l 194.051,344.937" /><path
             id="path180"
             style="fill:none;stroke:#ffffff;stroke-width:2.32115006;stroke-linecap:butt;stroke-linejoin:miter;stroke-miterlimit:3.8636899;stroke-dasharray:none;stroke-opacity:1"
             d="M 630.867,631.996 656.664,605.281 436.816,287.059 v 0 z" /><path
             id="path182"
             style="fill:#1f4fa2;fill-opacity:1;fill-rule:evenodd;stroke:none"
             d="m 662.809,598.809 21.3,-30.426 -247.293,-281.324 v 0 l 225.993,311.75" /><path
             id="path184"
             style="fill:none;stroke:#ffffff;stroke-width:2.32115006;stroke-linecap:butt;stroke-linejoin:miter;stroke-miterlimit:3.8636899;stroke-dasharray:none;stroke-opacity:1"
             d="m 662.809,598.809 21.3,-30.426 -247.293,-281.324 v 0 z" /><path
             id="path186"
             style="fill:#1f4fa2;fill-opacity:1;fill-rule:evenodd;stroke:none"
             d="m 688.199,561.801 16.86,-33.094 -268.243,-241.648 v 0 l 251.383,274.742" /><path
             id="path188"
             style="fill:none;stroke:#ffffff;stroke-width:2.32115006;stroke-linecap:butt;stroke-linejoin:miter;stroke-miterlimit:3.8636899;stroke-dasharray:none;stroke-opacity:1"
             d="m 688.199,561.801 16.86,-33.094 -268.243,-241.648 v 0 z" /><path
             id="path190"
             style="fill:#1f4fa2;fill-opacity:1;fill-rule:evenodd;stroke:none"
             d="m 708.617,519.43 10.86,-35.52 -282.661,-196.851 v 0 L 708.617,519.43" /><path
             id="path192"
             style="fill:none;stroke:#ffffff;stroke-width:2.32115006;stroke-linecap:butt;stroke-linejoin:miter;stroke-miterlimit:3.8636899;stroke-dasharray:none;stroke-opacity:1"
             d="m 708.617,519.43 10.86,-35.52 -282.661,-196.851 v 0 z" /><path
             id="path194"
             style="fill:#1f4fa2;fill-opacity:1;fill-rule:evenodd;stroke:none"
             d="m 721.941,474.473 4.524,-36.864 -289.649,-150.55 v 0 l 285.125,187.414" /><path
             id="path196"
             style="fill:none;stroke:#ffffff;stroke-width:2.32115006;stroke-linecap:butt;stroke-linejoin:miter;stroke-miterlimit:3.8636899;stroke-dasharray:none;stroke-opacity:1"
             d="m 721.941,474.473 4.524,-36.864 -289.649,-150.55 v 0 z" /><path
             id="path198"
             style="fill:#1f4fa2;fill-opacity:1;fill-rule:evenodd;stroke:none"
             d="M 727.367,428.766 726.07,391.648 436.816,287.059 v 0 l 290.551,141.707" /><path
             id="path200"
             style="fill:none;stroke:#ffffff;stroke-width:2.32115006;stroke-linecap:butt;stroke-linejoin:miter;stroke-miterlimit:3.8636899;stroke-dasharray:none;stroke-opacity:1"
             d="M 727.367,428.766 726.07,391.648 436.816,287.059 v 0 z" /><path
             id="path202"
             style="fill:#1f4fa2;fill-opacity:1;fill-rule:evenodd;stroke:none"
             d="m 725.504,382.934 -7.09,-36.457 -281.598,-59.418 v 0 l 288.688,95.875" /><path
             id="path204"
             style="fill:none;stroke:#ffffff;stroke-width:2.32115006;stroke-linecap:butt;stroke-linejoin:miter;stroke-miterlimit:3.8636899;stroke-dasharray:none;stroke-opacity:1"
             d="m 725.504,382.934 -7.09,-36.457 -281.598,-59.418 v 0 z" /><path
             id="path206"
             style="fill:#1f4fa2;fill-opacity:1;fill-rule:evenodd;stroke:none"
             d="m 716.652,338.785 -12.093,-31.84 -267.743,-19.886 v 0 l 279.836,51.726" /><path
             id="path208"
             style="fill:none;stroke:#ffffff;stroke-width:2.32115006;stroke-linecap:butt;stroke-linejoin:miter;stroke-miterlimit:3.8636899;stroke-dasharray:none;stroke-opacity:1"
             d="m 716.652,338.785 -12.093,-31.84 -267.743,-19.886 v 0 z" /><path
             id="path210"
             style="fill:#1f4fa2;fill-opacity:1;fill-rule:evenodd;stroke:none"
             d="m 700.555,298.727 -18.008,-35.758 -245.731,24.754 v 0 l 263.739,11.004" /><path
             id="path212"
             style="fill:none;stroke:#ffffff;stroke-width:2.32115006;stroke-linecap:butt;stroke-linejoin:miter;stroke-miterlimit:3.8636899;stroke-dasharray:none;stroke-opacity:1"
             d="m 700.555,298.727 -18.008,-35.758 -245.731,24.754 v 0 z" /><path
             id="path214"
             style="fill:#1f4fa2;fill-opacity:1;fill-rule:evenodd;stroke:none"
             d="m 409.551,704.047 -36.68,-5.809 63.934,-411.179 v 0 l -27.254,416.988" /><path
             id="path216"
             style="fill:none;stroke:#ffffff;stroke-width:2.32115006;stroke-linecap:butt;stroke-linejoin:miter;stroke-miterlimit:3.8636899;stroke-dasharray:none;stroke-opacity:1"
             d="m 409.551,704.047 -36.68,-5.809 63.934,-411.179 v 0 z" /><path
             id="path218"
             style="fill:#1f4fa2;fill-opacity:1;fill-rule:evenodd;stroke:none"
             d="M 364.32,696.242 329,684.766 436.805,287.059 v 0 L 364.32,696.242" /><path
             id="path220"
             style="fill:none;stroke:#ffffff;stroke-width:2.32115006;stroke-linecap:butt;stroke-linejoin:miter;stroke-miterlimit:3.8636899;stroke-dasharray:none;stroke-opacity:1"
             d="M 364.32,696.242 329,684.766 436.805,287.059 v 0 z" /><path
             id="path222"
             style="fill:#1f4fa2;fill-opacity:1;fill-rule:evenodd;stroke:none"
             d="M 319.863,681.438 287.074,664 436.805,287.059 v 0 L 319.863,681.438" /><path
             id="path224"
             style="fill:none;stroke:#ffffff;stroke-width:2.32115006;stroke-linecap:butt;stroke-linejoin:miter;stroke-miterlimit:3.8636899;stroke-dasharray:none;stroke-opacity:1"
             d="M 319.863,681.438 287.074,664 436.805,287.059 v 0 z" /><path
             id="path226"
             style="fill:#1f4fa2;fill-opacity:1;fill-rule:evenodd;stroke:none"
             d="M 280.113,660.145 250.066,638.312 436.805,287.059 v 0 L 280.113,660.145" /></g></g><g
         id="g228"><g
           clip-path="url(#clipPath234)"
           id="g230"><g
             clip-path="url(#clipPath240)"
             id="g236"><path
               id="path242"
               style="fill:#ed1c24;fill-opacity:1;fill-rule:nonzero;stroke:none"
               d="m 292.785,561.805 h 20.375 v 10.3125 h -20.375 z" /></g></g></g><g
         id="g244"><g
           clip-path="url(#clipPath250)"
           id="g246"><path
             id="path252"
             style="fill:none;stroke:#ffffff;stroke-width:2.32115006;stroke-linecap:butt;stroke-linejoin:miter;stroke-miterlimit:3.8636899;stroke-dasharray:none;stroke-opacity:1"
             d="M 280.113,660.145 250.066,638.312 436.805,287.059 v 0 z" /><path
             id="path254"
             style="fill:#1f4fa2;fill-opacity:1;fill-rule:evenodd;stroke:none"
             d="M 242.754,631.996 216.957,605.281 436.805,287.059 v 0 L 242.754,631.996" /><path
             id="path256"
             style="fill:none;stroke:#ffffff;stroke-width:2.32115006;stroke-linecap:butt;stroke-linejoin:miter;stroke-miterlimit:3.8636899;stroke-dasharray:none;stroke-opacity:1"
             d="M 242.754,631.996 216.957,605.281 436.805,287.059 v 0 z" /><path
             id="path258"
             style="fill:#1f4fa2;fill-opacity:1;fill-rule:evenodd;stroke:none"
             d="m 210.812,598.809 -21.3,-30.426 247.293,-281.324 v 0 l -225.993,311.75" /><path
             id="path260"
             style="fill:none;stroke:#ffffff;stroke-width:2.32115006;stroke-linecap:butt;stroke-linejoin:miter;stroke-miterlimit:3.8636899;stroke-dasharray:none;stroke-opacity:1"
             d="m 210.812,598.809 -21.3,-30.426 247.293,-281.324 v 0 z" /><path
             id="path262"
             style="fill:#1f4fa2;fill-opacity:1;fill-rule:evenodd;stroke:none"
             d="m 185.422,561.801 -16.86,-33.094 268.243,-241.648 v 0 L 185.422,561.801" /><path
             id="path264"
             style="fill:none;stroke:#ffffff;stroke-width:2.32115006;stroke-linecap:butt;stroke-linejoin:miter;stroke-miterlimit:3.8636899;stroke-dasharray:none;stroke-opacity:1"
             d="m 185.422,561.801 -16.86,-33.094 268.243,-241.648 v 0 z" /><path
             id="path266"
             style="fill:#1f4fa2;fill-opacity:1;fill-rule:evenodd;stroke:none"
             d="M 165.004,519.43 154.148,483.91 436.805,287.059 v 0 L 165.004,519.43" /><path
             id="path268"
             style="fill:none;stroke:#ffffff;stroke-width:2.32115006;stroke-linecap:butt;stroke-linejoin:miter;stroke-miterlimit:3.8636899;stroke-dasharray:none;stroke-opacity:1"
             d="M 165.004,519.43 154.148,483.91 436.805,287.059 v 0 z" /><path
             id="path270"
             style="fill:#1f4fa2;fill-opacity:1;fill-rule:evenodd;stroke:none"
             d="m 151.684,474.473 -4.528,-36.864 289.649,-150.55 v 0 L 151.684,474.473" /><path
             id="path272"
             style="fill:none;stroke:#ffffff;stroke-width:2.32115006;stroke-linecap:butt;stroke-linejoin:miter;stroke-miterlimit:3.8636899;stroke-dasharray:none;stroke-opacity:1"
             d="m 151.684,474.473 -4.528,-36.864 289.649,-150.55 v 0 z" /><path
             id="path274"
             style="fill:#1f4fa2;fill-opacity:1;fill-rule:evenodd;stroke:none"
             d="m 146.254,428.766 1.297,-37.118 289.254,-104.589 v 0 L 146.254,428.766" /><path
             id="path276"
             style="fill:none;stroke:#ffffff;stroke-width:2.32115006;stroke-linecap:butt;stroke-linejoin:miter;stroke-miterlimit:3.8636899;stroke-dasharray:none;stroke-opacity:1"
             d="m 146.254,428.766 1.297,-37.118 289.254,-104.589 v 0 z" /><path
             id="path278"
             style="fill:#1f4fa2;fill-opacity:1;fill-rule:evenodd;stroke:none"
             d="m 148.121,382.934 7.086,-36.457 281.598,-59.418 v 0 l -288.684,95.875" /><path
             id="path280"
             style="fill:none;stroke:#ffffff;stroke-width:2.32115006;stroke-linecap:butt;stroke-linejoin:miter;stroke-miterlimit:3.8636899;stroke-dasharray:none;stroke-opacity:1"
             d="m 148.121,382.934 7.086,-36.457 281.598,-59.418 v 0 z" /><path
             id="path282"
             style="fill:#1f4fa2;fill-opacity:1;fill-rule:evenodd;stroke:none"
             d="m 156.969,338.785 12.093,-31.84 267.743,-19.886 v 0 l -279.836,51.726" /><path
             id="path284"
             style="fill:none;stroke:#ffffff;stroke-width:2.32115006;stroke-linecap:butt;stroke-linejoin:miter;stroke-miterlimit:3.8636899;stroke-dasharray:none;stroke-opacity:1"
             d="m 156.969,338.785 12.093,-31.84 267.743,-19.886 v 0 z" /><path
             id="path286"
             style="fill:#1f4fa2;fill-opacity:1;fill-rule:evenodd;stroke:none"
             d="m 173.066,298.727 18.008,-35.758 245.731,24.754 v 0 l -263.739,11.004" /><path
             id="path288"
             style="fill:none;stroke:#ffffff;stroke-width:2.32115006;stroke-linecap:butt;stroke-linejoin:miter;stroke-miterlimit:3.8636899;stroke-dasharray:none;stroke-opacity:1"
             d="m 173.066,298.727 18.008,-35.758 245.731,24.754 v 0 z" /><path
             id="path290"
             style="fill:#1f4fa2;fill-opacity:1;fill-rule:nonzero;stroke:none"
             d="m 557.066,281.602 c -26.89,-43.125 -65.019,-75.5 -120.187,-95.961 -55.109,20.441 -93.668,52.902 -120.555,95.961 h 240.742" /><path
             id="path292"
             style="fill:none;stroke:#ffffff;stroke-width:4.17804003;stroke-linecap:butt;stroke-linejoin:miter;stroke-miterlimit:3.8636899;stroke-dasharray:none;stroke-opacity:1"
             d="m 557.066,281.602 c -26.89,-43.125 -65.019,-75.5 -120.187,-95.961 -55.109,20.441 -93.668,52.902 -120.555,95.961 z" /><path
             id="path294"
             style="fill:#ffffff;fill-opacity:1;fill-rule:nonzero;stroke:none"
             d="m 343.969,285.117 c 0,50.852 41.527,93.172 92.82,93.172 51.293,0 92.875,-42.32 92.875,-93.172 H 343.969" /><g
             transform="scale(1.00425,0.995748)"
             id="g296"><path
               id="path298"
               style="fill:none;stroke:#ffffff;stroke-width:4.39155006;stroke-linecap:butt;stroke-linejoin:miter;stroke-miterlimit:3.8636899;stroke-dasharray:none;stroke-opacity:1"
               d="m 342.512,286.335 c 0,51.069 41.352,93.57 92.427,93.57 51.076,0 92.482,-42.501 92.482,-93.57 z" /></g></g></g><path
         id="path300"
         style="fill:none;stroke:#ffffff;stroke-width:1.41930997;stroke-linecap:butt;stroke-linejoin:miter;stroke-miterlimit:3.86370993;stroke-dasharray:none;stroke-opacity:1"
         d="m 436.816,185.641 c -158.574,58.812 -180.308,227.785 -180.32,411.925 12.543,1.274 25.438,2.707 38.375,4.207 68.543,7.957 116.074,30.547 141.945,46.497 25.872,-15.95 73.407,-38.54 141.95,-46.497 12.933,-1.5 25.832,-2.933 38.375,-4.207 -0.012,-184.14 -21.746,-353.113 -180.325,-411.925 z" /><path
         id="path302"
         style="fill:none;stroke:#1f4fa2;stroke-width:8.04652023;stroke-linecap:butt;stroke-linejoin:miter;stroke-miterlimit:3.8636899;stroke-dasharray:none;stroke-opacity:1"
         d="m 436.816,159.578 c 190.473,63.637 203.961,270.465 202.254,457.008 -19.297,1.629 -40.16,3.879 -61.132,6.316 -79.399,9.219 -126.817,40.754 -141.122,51.426 -14.3,-10.672 -61.718,-42.207 -141.117,-51.426 -20.972,-2.437 -41.836,-4.687 -61.133,-6.316 -1.707,-186.543 11.782,-393.371 202.25,-457.008 z" /><path
         id="path304"
         style="fill:#ed1c24;fill-opacity:1;fill-rule:nonzero;stroke:none"
         d="m 346.977,286.406 c 0,48.133 40.789,89.25 89.281,89.551 l 0.535,0.004 h 0.301 l 0.297,-0.004 c 48.464,-0.336 89.269,-41.437 89.269,-89.551 -0.012,-0.781 0,-1.894 0,-2.679 H 346.977 c 0,0.785 0.011,1.898 0.031,2.679 h -0.031" /><path
         id="path306"
         style="fill:#1f4fa2;fill-opacity:1;fill-rule:nonzero;stroke:none"
         d="m 286.641,576.117 25.293,-0.648 7.316,-15.801 -23.062,-0.832 -9.547,17.281" /><path
         id="path308"
         style="fill:none;stroke:#1f4fa2;stroke-width:0.42499501;stroke-linecap:butt;stroke-linejoin:miter;stroke-miterlimit:3.8636899;stroke-dasharray:none;stroke-opacity:1"
         d="m 286.641,576.117 25.293,-0.648 7.316,-15.801 -23.062,-0.832 z" /><path
         id="path310"
         style="fill:#1f4fa2;fill-opacity:1;fill-rule:nonzero;stroke:none"
         d="m 578.148,579.559 -17.632,-3.227 -5.133,-13.598 23.57,-3.968 10.926,21.82 -11.731,-1.027" /><path
         id="path312"
         style="fill:none;stroke:#1f4fa2;stroke-width:0.42499501;stroke-linecap:butt;stroke-linejoin:miter;stroke-miterlimit:3.8636899;stroke-dasharray:none;stroke-opacity:1"
         d="m 578.148,579.559 -17.632,-3.227 -5.133,-13.598 23.57,-3.968 10.926,21.82 z" /><path
         id="path314"
         style="fill:#ffffff;fill-opacity:1;fill-rule:nonzero;stroke:none"
         d="m 278.848,485.93 c 0,6.008 0,58.101 0,58.101 v 11.254 c 0,0 -1.555,14.949 14.945,14.949 17.684,0 19.551,-11.293 9.953,-11.293 l -10.519,-0.675 c 0,0 -5.375,-0.157 -5.375,-9.411 0,-11.117 0,-62.925 0,-62.925 h -9.004" /><g
         transform="scale(0.999984,1.00002)"
         id="g316"><path
           id="path318"
           style="fill:none;stroke:#ffffff;stroke-width:9.82618999;stroke-linecap:butt;stroke-linejoin:miter;stroke-miterlimit:3.8636899;stroke-dasharray:none;stroke-opacity:1"
           d="m 278.852,485.922 c 0,6.008 0,58.1 0,58.1 v 11.254 c 0,0 -1.555,14.949 14.946,14.949 17.684,0 19.551,-11.293 9.953,-11.293 l -10.52,-0.675 c 0,0 -5.375,-0.157 -5.375,-9.41 0,-11.117 0,-62.925 0,-62.925 z" /></g><path
         id="path320"
         style="fill:#ed1c24;fill-opacity:1;fill-rule:nonzero;stroke:none"
         d="m 278.848,486.309 c 0,6.007 0,58.101 0,58.101 v 11.254 c 0,0 -1.715,14.949 14.945,14.949 17.684,0 19.605,-11.293 9.953,-11.293 l -10.519,-0.675 c 0,0 -5.375,-0.157 -5.375,-9.415 0,-11.113 0,-62.921 0,-62.921 h -9.004" /><path
         id="path322"
         style="fill:#ffffff;fill-opacity:1;fill-rule:nonzero;stroke:none"
         d="m 594.617,485.93 c 0,6.008 0,58.101 0,58.101 v 11.254 c 0,0 1.559,14.949 -14.945,14.949 -17.684,0 -19.652,-11.293 -9.949,-11.293 l 10.515,-0.675 c 0,0 5.375,-0.157 5.375,-9.411 0,-11.117 0,-62.925 0,-62.925 h 9.004" /><path
         id="path324"
         style="fill:none;stroke:#ffffff;stroke-width:9.82635021;stroke-linecap:butt;stroke-linejoin:miter;stroke-miterlimit:3.8636899;stroke-dasharray:none;stroke-opacity:1"
         d="m 594.617,485.93 c 0,6.008 0,58.101 0,58.101 v 11.254 c 0,0 1.559,14.949 -14.945,14.949 -17.684,0 -19.652,-11.293 -9.949,-11.293 l 10.515,-0.675 c 0,0 5.375,-0.157 5.375,-9.411 0,-11.117 0,-62.925 0,-62.925 z" /><path
         id="path326"
         style="fill:#ed1c24;fill-opacity:1;fill-rule:nonzero;stroke:none"
         d="m 594.617,486.309 c 0,6.007 0,58.101 0,58.101 v 11.254 c 0,0 1.715,14.949 -14.945,14.949 -17.684,0 -19.613,-11.293 -9.949,-11.293 l 10.515,-0.675 c 0,0 5.375,-0.157 5.375,-9.415 0,-11.113 0,-62.921 0,-62.921 h 9.004" /><path
         id="path328"
         style="fill:#ffffff;fill-opacity:1;fill-rule:nonzero;stroke:none"
         d="m 297.18,550.836 h 279.179 c 5.129,0 9.286,-4.051 9.286,-9.051 v -76.961 c 0,-5 -4.157,-9.054 -9.286,-9.054 H 297.18 c -5.129,0 -9.285,4.054 -9.285,9.054 v 76.961 c 0,5 4.156,9.051 9.285,9.051" /><path
         id="path330"
         style="fill:#ed1c24;fill-opacity:1;fill-rule:nonzero;stroke:none"
         d="m 294.551,462.027 h 284.434 v 82.5547 H 294.551 Z" /><path
         id="path332"
         style="fill:none;stroke:#ed1c24;stroke-width:0.42499501;stroke-linecap:butt;stroke-linejoin:miter;stroke-miterlimit:3.8636899;stroke-dasharray:none;stroke-opacity:1"
         d="m 294.551,462.027 h 284.434 v 82.5547 H 294.551 Z" /><path
         id="path334"
         style="fill:#ffffff;fill-opacity:1;fill-rule:evenodd;stroke:none"
         d="m 324.715,499.668 h 11.426 c 2.285,0 6.996,-1.785 6.996,-6.641 0,-4.285 -2.641,-7.425 -8.211,-7.425 h -10.211 z m 0,19.562 h 9.64 c 3.282,0 7.141,-1.355 7.141,-5.57 0,-3.785 -3,-6.996 -7.285,-6.996 h -9.496 z m -10.211,-40.625 h 23.422 c 9.136,0 15.422,4.711 15.422,11.852 0,7.637 -4,11.707 -10.282,12.707 v 0.145 c 5.711,1.57 8.637,5.855 8.637,11.566 0,7.996 -6.211,11.352 -12.351,11.352 h -24.848 v -47.622" /><path
         id="path336"
         style="fill:#ffffff;fill-opacity:1;fill-rule:evenodd;stroke:none"
         d="m 362.738,478.605 h 9.996 v 35.485 h -9.996 z m -0.144,41.481 h 10.211 v 6.57 h -10.211 v -6.57" /><path
         id="path338"
         style="fill:#ffffff;fill-opacity:1;fill-rule:nonzero;stroke:none"
         d="m 384.414,478.605 h 9.99609 v 47.6211 H 384.414 Z" /><path
         id="path340"
         style="fill:#ffffff;fill-opacity:1;fill-rule:evenodd;stroke:none"
         d="m 406.09,478.605 h 9.996 v 47.622 h -9.996 z m 10.64,19.848 14.137,-19.848 h 10.711 l -14.851,19.848 12.777,15.637 H 428.297 L 416.73,498.453" /><path
         id="path342"
         style="fill:#ffffff;fill-opacity:1;fill-rule:evenodd;stroke:none"
         d="m 478.379,486.602 c -3.781,-1.215 -7.641,-2.286 -11.711,-2.286 -6.422,0 -11.352,3.711 -11.352,10.352 v 1.144 h 25.704 v 2.782 c 0,11.496 -7.637,16.351 -17.278,16.351 -12.351,0 -18.422,-7.781 -18.422,-18.633 0,-10.855 7.141,-18.566 19.637,-18.566 4.926,0 8.711,0.5 12.496,1.359 z m -23.063,13.992 c 0.36,4.64 3.286,8.281 8.426,8.281 5.5,0 7.785,-3.211 7.785,-8.281 h -16.211" /><path
         id="path344"
         style="fill:#ffffff;fill-opacity:1;fill-rule:nonzero;stroke:none"
         d="m 499.469,514.09 h -9.996 v -35.485 h 9.996 v 13.707 c 0,10.997 3.426,14.637 10.136,14.637 3.856,0 7.286,-2.07 7.286,-5.785 v -22.559 h 9.996 v 24.844 c 0,8.711 -6.5,11.496 -13.996,11.496 -5.926,0 -10.637,-1.57 -13.278,-6.855 l -0.144,0.144 v 5.856" /><path
         id="path346"
         style="fill:#ffffff;fill-opacity:1;fill-rule:nonzero;stroke:none"
         d="m 549.688,514.09 v 8.496 l -9.997,-2.356 v -6.14 h -4.996 v -6.996 h 4.996 v -20.137 c 0,-6.996 3.715,-9.211 10.567,-9.211 2.93,0 5.5,0.359 8,1.074 l 1.14,7.137 c -1.714,-0.426 -3.496,-0.641 -5.285,-0.641 -3.566,0 -4.425,2.426 -4.425,5.996 v 15.782 h 8.996 v 6.996 h -8.996" /><path
         id="path348"
         style="fill:#ffffff;fill-opacity:1;fill-rule:nonzero;stroke:none"
         d="m 385.055,323.473 v 4.347 c 2.015,0.09 3.429,0.223 4.234,0.403 1.285,0.285 2.332,0.851 3.141,1.703 0.55,0.586 0.968,1.359 1.254,2.332 0.164,0.582 0.246,1.015 0.246,1.301 h 5.312 v -32.497 h -6.547 v 22.411 h -7.64" /><path
         id="path350"
         style="fill:#ffffff;fill-opacity:1;fill-rule:evenodd;stroke:none"
         d="m 411.598,330.578 c 2.019,2.164 4.632,3.246 7.843,3.25 4.946,0 8.336,-2.191 10.176,-6.566 1.047,-2.481 1.571,-5.746 1.571,-9.797 0,-3.93 -0.5,-7.207 -1.504,-9.836 -1.911,-5.008 -5.422,-7.508 -10.532,-7.508 -2.437,0 -4.625,0.715 -6.566,2.152 -1.945,1.45 -3.055,3.555 -3.34,6.317 h 6.363 c 0.149,-0.953 0.555,-1.731 1.211,-2.328 0.657,-0.598 1.532,-0.899 2.621,-0.899 2.11,0 3.586,1.168 4.438,3.496 0.465,1.286 0.754,3.161 0.875,5.625 -0.582,-0.73 -1.203,-1.293 -1.859,-1.679 -1.196,-0.719 -2.668,-1.075 -4.415,-1.075 -2.585,0 -4.878,0.887 -6.882,2.665 -2,1.793 -3,4.371 -3,7.734 0,3.48 1,6.297 3,8.449 z m 10.757,-12.887 c 1.45,0.926 2.176,2.532 2.176,4.817 0,1.84 -0.433,3.297 -1.301,4.371 -0.851,1.074 -2.023,1.613 -3.519,1.613 -1.09,0 -2.023,-0.304 -2.801,-0.918 -1.226,-0.957 -1.836,-2.578 -1.836,-4.863 0,-1.926 0.387,-3.379 1.164,-4.348 0.789,-0.957 2,-1.433 3.629,-1.433 0.883,0 1.711,0.254 2.488,0.761" /><path
         id="path352"
         style="fill:#ffffff;fill-opacity:1;fill-rule:evenodd;stroke:none"
         d="m 445.062,306.777 c 0.836,-0.882 1.985,-1.324 3.45,-1.324 1.465,0 2.609,0.442 3.429,1.324 0.836,0.879 1.254,2.121 1.254,3.719 0,1.66 -0.425,2.914 -1.277,3.766 -0.836,0.867 -1.969,1.3 -3.406,1.3 -1.434,0 -2.574,-0.433 -3.43,-1.3 -0.836,-0.852 -1.254,-2.106 -1.254,-3.766 0,-1.598 0.41,-2.84 1.234,-3.719 z m -6.632,8.246 c 0.836,1.481 2.05,2.594 3.652,3.34 -1.57,1.047 -2.594,2.172 -3.07,3.383 -0.465,1.227 -0.696,2.367 -0.696,3.43 0,2.359 0.887,4.371 2.668,6.027 1.778,1.676 4.286,2.512 7.528,2.512 3.242,0 5.754,-0.836 7.531,-2.512 1.777,-1.656 2.668,-3.668 2.668,-6.027 0,-1.063 -0.242,-2.203 -0.719,-3.43 -0.465,-1.211 -1.48,-2.262 -3.047,-3.16 1.598,-0.895 2.801,-2.082 3.61,-3.563 0.804,-1.48 1.207,-3.128 1.207,-4.953 0,-2.734 -1.016,-5.066 -3.047,-6.992 -2.016,-1.914 -4.84,-2.867 -8.473,-2.867 -3.629,0 -6.379,0.953 -8.246,2.867 -1.867,1.926 -2.801,4.258 -2.801,6.992 0,1.825 0.41,3.473 1.235,4.953 z m 7.058,6.543 c 0.731,-0.746 1.739,-1.117 3.024,-1.117 1.3,0 2.3,0.371 3.004,1.117 0.718,0.746 1.074,1.711 1.074,2.891 0,1.285 -0.356,2.289 -1.074,3.004 -0.704,0.734 -1.704,1.098 -3.004,1.098 -1.285,0 -2.293,-0.364 -3.024,-1.098 -0.718,-0.715 -1.078,-1.719 -1.078,-3.004 0,-1.18 0.36,-2.145 1.078,-2.891" /><path
         id="path354"
         style="fill:#ffffff;fill-opacity:1;fill-rule:evenodd;stroke:none"
         d="m 488.742,308.055 h -3.676 v -6.993 h -6.25 v 6.993 h -12.863 v 5.578 l 11.945,19.722 h 7.168 v -20.304 h 3.676 z m -9.926,4.996 v 14.031 l -8.136,-14.031 h 8.136" /></g></g></svg>